<?xml version="1.0" encoding="UTF-8" standalone="no"?>
<svg
   viewBox="-173.5 -173.5 347 347"
   version="1.1"
   id="svg1"
   xmlns="http://www.w3.org/2000/svg"
   xmlns:svg="http://www.w3.org/2000/svg"
   xmlns:rdf="http://www.w3.org/1999/02/22-rdf-syntax-ns#"
   xmlns:cc="http://creativecommons.org/ns#"
   xmlns:dc="http://purl.org/dc/elements/1.1/">
  <title
     id="title1">ClaimStation Rose Curve Device with Border</title>
  <defs
     id="defs1" />
  <path
     d="M 153 0 L 153.45863604044993 0.9642217359120212 L 153.91028449517435 1.934195489369346 L 154.35400027773355 2.9098489968134467 L 154.7888427009295 3.891087237687387 L 155.21387754514745 4.87779260935393 L 155.62817911227384 5.869825170709639 L 156.0308322604413 6.867022953825181 L 156.42093441489544 7.8692023427538 L 156.79759755033626 8.876158518463843 L 157.15995014015414 9.887665968667983 L 157.50713906806098 10.90347906114177 L 157.83833149770678 11.92333267894791 L 158.15271669597124 12.946942915810473 L 158.44950780573274 13.974007829715992 L 158.7279435640366 15.004208252655863 L 158.9872899617159 16.037208654267896 L 159.22684184065736 17.072658056983848 L 159.44592442505473 18.110191000145313 L 159.64389478314973 19.149428550412708 L 159.8201432161263 20.18997935566123 L 159.97409457099823 21.23144073943465 L 160.10520947451218 22.273399832912336 L 160.2129854852755 23.315434741237436 L 160.29695816151533 24.35711574095552 L 160.35670204207412 25.398006505222334 L 160.3918315384565 26.437665353358213 L 160.40200173595184 27.4756465212543 L 160.3869091020747 28.511501449072625 L 160.3462921007866 29.54478008262905 L 160.27993171118442 30.575032184803607 L 160.18765184957098 31.601808653289332 L 160.06931969405005 32.624662840965996 L 159.9248459110213 33.64315187517109 L 159.75418478318224 34.65683797213608 L 159.55733423887926 35.665289742861546 L 159.33433578288134 36.66808348672066 L 159.08527432888488 37.664804469105924 L 158.8102779342901 38.655048179469915 L 158.50951743801892 39.63842156615567 L 158.18320600237558 40.61454424446831 L 157.83159856017338 41.58304967450299 L 157.4549911685776 42.54358630531954 L 157.05372027133106 43.49581868213665 L 156.62816187124488 44.43942851331133 L 156.17873061504616 45.37411569397009 L 155.7058787928802 46.299599283268584 L 155.2100952549623 47.2156184323737 L 154.69190424806825 48.12193326038875 L 154.15186417473763 49.01832567557533 L 153.59056627824353 49.904600139366956 L 153.00863325655283 50.780584370816655 L 152.40671780866452 51.646129989275984 L 151.78550111686917 52.50111309326256 L 151.14569126861713 53.34543477364052 L 150.48802162182133 54.17902155940891 L 149.81324911754723 55.0018257945706 L 149.12215254416063 55.81382594473467 L 148.4155307571111 56.615026832289985 L 147.6942008586276 57.40545979917714 L 146.95899634168796 58.18518279647612 L 146.21076520270177 58.95428040022187 L 145.4503680274111 59.71286375305566 L 144.67867605456726 60.46107043151748 L 143.89656922198634 61.19906423898323 L 143.10493419961713 61.92703492444955 L 142.30466241427686 62.64519782756757 L 141.49664807071858 63.353793450525714 L 140.6817861736933 64.05308695757819 L 139.86097055565597 64.74336760321209 L 139.03509191474046 65.42494809013915 L 138.20503586759295 66.0981638584888 L 137.3716810216067 66.76337230776761 L 136.53589707104283 67.42095195333341 L 135.69854292145467 68.07130151931335 L 134.86046484675327 68.71483897006958 L 134.02249468316208 69.35200048248757 L 133.18544806421036 69.98323936152605 L 132.35012270080455 70.60902490162734 L 131.51729671029784 71.22984119673876 L 130.68772699835083 71.84618590184205 L 129.86214769723708 72.45856894902614 L 129.0412686641032 73.06751122127001 L 128.22577404253792 73.67354318722498 L 127.41632089064278 74.27720350040208 L 126.6135378786279 74.87903756627503 L 125.81802405877903 75.47959608090812 L 125.03034771046026 76.07943354480682 L 124.25104526262642 76.6791067557673 L 123.48062029612491 77.27917328457185 L 122.7195426278672 77.88018993743623 L 121.96824747874506 78.48271120916513 L 121.22713472695817 79.08728773101217 L 120.49656824820751 79.69446471726977 L 119.776875343994 80.30478041463435 L 119.06834625904288 80.91876455840047 L 118.37123378865654 81.53693683953686 L 117.69100221002988 82.16347002737548 L 117.06162905705716 82.822921355429 L 116.43946820683854 83.48548882361558 L 115.82459762235099 84.1514959617466 L 115.21706813908057 84.82125390452019 L 114.61690357287891 85.49506040332592 L 114.02410089162613 86.17319886542963 L 113.43863045001324 86.85593742315827 L 112.86043628660342 87.54352803563854 L 112.28943648218399 88.23620562557015 L 111.72552357827254 88.93418725343444 L 111.16856505449742 89.63767133145299 L 110.61840386343344 90.34683687951924 L 110.07485902133597 91.06184282522653 L 109.53772625308675 91.7828273500136 L 109.00677868953477 92.50990728333811 L 108.48176761529567 93.24317754667447 L 107.9624232649531 93.98271064901304 L 107.44845566549569 94.72855623541284 L 106.93955552271535 95.48074069003295 L 106.43539514919308 96.23926679493313 L 105.96187800525972 97.02814898181195 L 105.51233358664273 97.84240658962601 L 105.06957002153487 98.66689370958902 L 104.63302986104344 99.50148931536303 L 104.20213708473574 100.34603810889932 L 103.77629867300307 101.20035053782784 L 103.35490621121376 102.06420289802517 L 102.93733752154178 102.93733752154176 L 102.52295831830462 103.81946304985622 L 102.11112388260199 104.71025479221 L 101.7011807520131 105.6093551685615 L 101.2924684210909 106.51637423648484 L 100.88432104837925 107.4308903011257 L 100.47606916568003 108.35245060711607 L 100.06704138530827 109.28057211113973 L 99.65656610109362 110.21474233363573 L 99.24397317892036 111.1544202879221 L 98.82859563263942 112.09903748482459 L 98.40977128123932 113.04799901069848 L 97.98684438322647 114.00068467654262 L 97.55916724423817 114.95645023571839 L 97.12610179399461 115.91462866760818 L 96.68702112878957 116.87453152437308 L 96.2413110158203 117.83545033780452 L 95.78837135576961 118.79665808310354 L 95.32761760017158 119.7574106962699 L 94.85848212022184 120.71694864163884 L 94.38041552382855 121.67449852596648 L 93.89288791784567 122.629274755339 L 93.39539011257952 123.5804812310591 L 92.88743476582066 124.52731308055752 L 92.36855746381501 125.46895841927434 L 91.83831773676243 126.40460013936693 L 91.29630000660381 127.33341772101942 L 90.74211446504316 128.25458906206052 L 90.17539787993518 129.16729232153608 L 89.59581432836094 130.0707077728347 L 89.00305585490777 130.96401966192565 L 88.39684305386749 131.84641806624256 L 87.77692557426836 132.71710074972958 L 87.14308254685695 133.57527500956147 L 86.49512293235206 134.42015951005544 L 85.8328857904966 135.25098609930868 L 85.15624046964153 136.0670016041253 L 84.46508671679926 136.86746959883354 L 83.75935470831172 137.65167214364524 L 83.03900500148251 138.41891148827008 L 82.30402840772452 139.16851173656846 L 81.55444578797739 139.8998204681091 L 80.79030777134638 140.61221031258992 L 80.01169439811041 141.305080473182 L 79.21871468843933 141.97785819497142 L 78.41150613834795 142.63000017479274 L 77.59023414459824 143.2609939088818 L 76.75509136044047 143.8703589749139 L 75.90629698425548 144.45764824514464 L 75.04409598332978 145.02244902752616 L 74.16875825515463 145.5643841318383 L 73.28057772879605 146.08311285804743 L 72.37987140902912 146.57833190428437 L 71.46697836607028 147.0497761920221 L 70.54225867387413 147.49721960622537 L 69.60609230008468 147.9204756484446 L 68.65887795084711 148.31939800102998 L 67.70103187379333 148.69388100085254 L 66.73298662261256 149.04386002113063 L 65.75518978670726 149.36931176017984 L 64.76810268951465 149.670254436123 L 63.77219905914342 149.94674788682335 L 62.76796367503643 150.19889357452638 L 61.755890994419566 150.42683449492665 L 60.73648376233878 150.63075499060125 L 59.710251609116 150.8108804689841 L 58.67770963907644 150.96747702528128 L 57.639377014408325 151.10085097095805 L 56.5957755380179 151.21134826865526 L 55.54742823922992 151.29935387461805 L 54.494857966165284 151.36529098994382 L 53.43858598859636 151.40962022217715 L 52.37913061503961 151.43283865899596 L 51.31700582779621 151.43547885594774 L 50.25271993958953 151.41810774040252 L 49.18677427538103 151.38132543409543 L 48.11966188286518 151.3257639968273 L 47.05186627505855 151.2520860940879 L 45.9838602082989 151.16098359155043 L 44.91610449886725 151.05317607956704 L 43.849046881330196 150.9294093309655 L 42.7831209115803 150.7904536956145 L 41.71874491742101 150.63710243537824 L 40.656320999407605 150.47017000323143 L 39.596234084511295 150.29049027044306 L 38.53885103502459 150.09891470586828 L 37.48451981496824 149.89631051150675 L 36.43356871609977 149.68355871859646 L 35.38630564545547 149.46155224861255 L 34.3430174761863 149.23119394363005 L 33.3039694632707 148.99339457058792 L 32.269404725508146 148.74907080406058 L 31.239543795012597 148.49914319220076 L 30.21458423523839 148.24453411056237 L 29.194700328382392 147.98616570854722 L 28.180042832814028 147.72495785324384 L 27.170738810993083 147.46182607543685 L 26.166891528140933 147.19767952256674 L 25.16858042173739 146.9334189234091 L 24.1758611417205 146.66993456921884 L 23.18876566107425 146.40810431605215 L 22.207302456295867 146.14879161293203 L 21.231456757044857 145.8928435604693 L 20.261190864085886 145.64108900447957 L 19.29644453445297 145.394336669062 L 18.337135432578588 145.15337333351297 L 17.38315964595287 144.91896205735006 L 16.43439226370161 144.69184045761014 L 15.49068801630221 144.47271904246574 L 14.551881974489843 144.26227960507248 L 13.617790305246801 144.06117368142324 L 12.688211082611856 143.8700210758329 L 11.762925150899404 143.68940845752192 L 10.841697037775635 143.51988803160123 L 9.92427591450401 143.3619762875855 L 9.0113058799419 143.2306054105238 L 8.10362489966847 143.1507687784068 L 7.197975702693742 143.07855310746248 L 6.2941528698577685 143.01421697029534 L 5.39194387793745 142.957989922131 L 4.491129942270928 142.91007197850453 L 3.591486877407443 142.87063316007186 L 2.6927859732985664 142.8398131056184 L 1.7947948845055812 142.8177207541764 L 0.8972785298616136 142.80443409700263 L 8.743978145912102e-15 142.79999999999998 L -0.8972785298616278 142.80443409700263 L -1.7947948845055954 142.8177207541764 L -2.6927859732985806 142.8398131056184 L -3.591486877407425 142.87063316007186 L -4.491129942270943 142.91007197850453 L -5.391943877937465 142.957989922131 L -6.294152869857782 143.01421697029534 L -7.197975702693755 143.07855310746248 L -8.103624899668484 143.1507687784068 L -9.011305879941915 143.2306054105238 L -9.924275914504024 143.3619762875855 L -10.84169703777565 143.51988803160123 L -11.762925150899418 143.68940845752192 L -12.68821108261187 143.8700210758329 L -13.617790305246816 144.06117368142324 L -14.551881974489858 144.26227960507248 L -15.490688016302189 144.4727190424657 L -16.434392263701625 144.69184045761014 L -17.383159645952883 144.91896205735006 L -18.337135432578606 145.15337333351297 L -19.296444534452952 145.394336669062 L -20.2611908640859 145.6410890044796 L -21.231456757044874 145.8928435604693 L -22.207302456295878 146.148791612932 L -23.188765661074232 146.40810431605212 L -24.175861141720514 146.66993456921884 L -25.168580421737403 146.9334189234091 L -26.16689152814095 147.19767952256674 L -27.1707388109931 147.46182607543682 L -28.180042832814042 147.72495785324384 L -29.19470032838241 147.98616570854722 L -30.21458423523841 148.24453411056237 L -31.239543795012626 148.49914319220082 L -32.26940472550816 148.7490708040606 L -33.30396946327071 148.99339457058792 L -34.34301747618631 149.23119394363007 L -35.38630564545549 149.46155224861255 L -36.43356871609976 149.68355871859646 L -37.48451981496826 149.89631051150675 L -38.538851035024614 150.09891470586828 L -39.596234084511316 150.29049027044306 L -40.65632099940758 150.47017000323143 L -41.718744917421034 150.63710243537824 L -42.78312091158032 150.7904536956145 L -43.84904688133021 150.92940933096554 L -44.91610449886723 151.053176079567 L -45.983860208298914 151.1609835915504 L -47.05186627505857 151.2520860940879 L -48.1196618828652 151.3257639968273 L -49.186774275381055 151.38132543409543 L -50.252719939589554 151.41810774040252 L -51.31700582779623 151.43547885594774 L -52.37913061503962 151.43283865899596 L -53.43858598859638 151.40962022217715 L -54.4948579661653 151.36529098994382 L -55.54742823922993 151.29935387461805 L -56.59577553801794 151.2113482686553 L -57.63937701440833 151.10085097095805 L -58.67770963907641 150.96747702528126 L -59.71025160911602 150.8108804689841 L -60.73648376233879 150.63075499060125 L -61.75589099441958 150.42683449492665 L -62.767963675036405 150.1988935745264 L -63.77219905914343 149.94674788682335 L -64.76810268951466 149.670254436123 L -65.75518978670728 149.36931176017984 L -66.73298662261253 149.04386002113066 L -67.70103187379334 148.69388100085254 L -68.65887795084713 148.31939800102998 L -69.6060923000847 147.92047564844458 L -70.54225867387414 147.49721960622537 L -71.46697836607032 147.0497761920221 L -72.37987140902918 146.57833190428437 L -73.28057772879603 146.08311285804743 L -74.16875825515461 145.56438413183832 L -75.04409598332978 145.02244902752616 L -75.90629698425549 144.45764824514464 L -76.75509136044049 143.8703589749139 L -77.59023414459826 143.2609939088818 L -78.41150613834795 142.63000017479274 L -79.21871468843939 141.97785819497142 L -80.0116943981104 141.305080473182 L -80.79030777134635 140.61221031258992 L -81.55444578797737 139.8998204681091 L -82.30402840772453 139.16851173656846 L -83.03900500148252 138.41891148827006 L -83.75935470831175 137.65167214364524 L -84.46508671679928 136.8674695988335 L -85.15624046964159 136.06700160412527 L -85.83288579049659 135.2509860993087 L -86.49512293235203 134.42015951005544 L -87.14308254685695 133.57527500956147 L -87.77692557426836 132.71710074972958 L -88.3968430538675 131.84641806624256 L -89.00305585490779 130.96401966192565 L -89.59581432836099 130.0707077728347 L -90.17539787993519 129.16729232153602 L -90.74211446504317 128.25458906206046 L -91.29630000660383 127.33341772101947 L -91.83831773676243 126.40460013936693 L -92.36855746381501 125.46895841927434 L -92.88743476582066 124.52731308055752 L -93.39539011257955 123.5804812310591 L -93.89288791784568 122.629274755339 L -94.38041552382856 121.67449852596647 L -94.85848212022184 120.71694864163877 L -95.32761760017156 119.75741069626991 L -95.7883713557696 118.79665808310354 L -96.2413110158203 117.83545033780452 L -96.68702112878957 116.87453152437308 L -97.12610179399462 115.91462866760818 L -97.55916724423818 114.95645023571838 L -97.98684438322648 114.00068467654258 L -98.40977128123933 113.04799901069843 L -98.82859563263943 112.09903748482454 L -99.24397317892034 111.15442028792211 L -99.65656610109359 110.21474233363573 L -100.06704138530824 109.28057211113973 L -100.47606916568006 108.35245060711605 L -100.88432104837925 107.43089030112569 L -101.29246842109093 106.51637423648482 L -101.70118075201312 105.60935516856145 L -102.11112388260197 104.71025479220994 L -102.5229583183046 103.81946304985624 L -102.93733752154176 102.93733752154178 L -103.35490621121376 102.06420289802517 L -103.77629867300307 101.20035053782786 L -104.20213708473574 100.34603810889932 L -104.63302986104344 99.50148931536302 L -105.06957002153489 98.66689370958899 L -105.51233358664274 97.84240658962598 L -105.96187800525969 97.02814898181197 L -106.43539514919308 96.23926679493314 L -106.93955552271532 95.48074069003293 L -107.44845566549569 94.72855623541284 L -107.96242326495312 93.98271064901303 L -108.48176761529567 93.24317754667446 L -109.0067786895348 92.5099072833381 L -109.53772625308676 91.78282735001358 L -110.074859021336 91.0618428252265 L -110.61840386343343 90.34683687951926 L -111.16856505449742 89.637671331453 L -111.72552357827254 88.93418725343444 L -112.28943648218399 88.23620562557015 L -112.86043628660342 87.54352803563852 L -113.43863045001324 86.85593742315825 L -114.02410089162615 86.17319886542961 L -114.61690357287893 85.49506040332591 L -115.21706813908057 84.8212539045202 L -115.82459762235098 84.15149596174662 L -116.43946820683854 83.48548882361558 L -117.06162905705716 82.82292135542902 L -117.6910022100299 82.16347002737547 L -118.37123378865657 81.53693683953686 L -119.06834625904291 80.91876455840045 L -119.77687534399402 80.30478041463432 L -120.49656824820757 79.69446471726972 L -121.22713472695817 79.08728773101218 L -121.96824747874506 78.48271120916513 L -122.7195426278672 77.88018993743623 L -123.48062029612491 77.27917328457185 L -124.25104526262645 76.67910675576728 L -125.0303477104603 76.0794335448068 L -125.81802405877903 75.47959608090811 L -126.61353787862791 74.87903756627499 L -127.41632089064275 74.27720350040208 L -128.2257740425379 73.67354318722498 L -129.0412686641032 73.06751122127001 L -129.86214769723708 72.45856894902614 L -130.68772699835085 71.84618590184205 L -131.51729671029787 71.22984119673875 L -132.35012270080458 70.60902490162732 L -133.18544806421042 69.98323936152602 L -134.02249468316208 69.35200048248758 L -134.86046484675327 68.7148389700696 L -135.69854292145465 68.07130151931334 L -136.53589707104283 67.42095195333343 L -137.3716810216067 66.76337230776761 L -138.20503586759298 66.09816385848882 L -139.03509191474046 65.42494809013914 L -139.860970555656 64.74336760321208 L -140.68178617369333 64.05308695757815 L -141.49664807071855 63.35379345052572 L -142.30466241427686 62.64519782756759 L -143.10493419961713 61.92703492444955 L -143.89656922198634 61.19906423898323 L -144.67867605456726 60.46107043151747 L -145.45036802741117 59.71286375305567 L -146.2107652027018 58.95428040022184 L -146.95899634168796 58.185182796476084 L -147.6942008586276 57.40545979917715 L -148.4155307571111 56.61502683229 L -149.12215254416063 55.81382594473467 L -149.81324911754723 55.0018257945706 L -150.48802162182133 54.17902155940889 L -151.14569126861716 53.34543477364049 L -151.78550111686923 52.501113093262546 L -152.40671780866452 51.64612998927595 L -153.00863325655288 50.78058437081664 L -153.5905662782435 49.90460013936696 L -154.1518641747376 49.01832567557535 L -154.69190424806825 48.12193326038875 L -155.2100952549623 47.21561843237369 L -155.70587879288024 46.29959928326858 L -156.1787306150462 45.374115693970076 L -156.6281618712449 44.439428513311306 L -157.05372027133114 43.49581868213662 L -157.4549911685776 42.54358630531956 L -157.83159856017338 41.58304967450301 L -158.18320600237558 40.61454424446831 L -158.50951743801892 39.638421566155664 L -158.8102779342901 38.655048179469894 L -159.0852743288849 37.66480446910591 L -159.33433578288137 36.66808348672063 L -159.55733423887926 35.66528974286151 L -159.75418478318224 34.6568379721361 L -159.9248459110213 33.64315187517111 L -160.06931969405005 32.624662840965996 L -160.18765184957098 31.601808653289332 L -160.27993171118442 30.5750321848036 L -160.3462921007866 29.544780082629032 L -160.38690910207472 28.511501449072593 L -160.40200173595184 27.475646521254262 L -160.39183153845653 26.437665353358174 L -160.35670204207412 25.39800650522235 L -160.2969581615153 24.357115740955532 L -160.2129854852755 23.315434741237436 L -160.10520947451218 22.273399832912325 L -159.97409457099823 21.231440739434632 L -159.8201432161263 20.1899793556612 L -159.64389478314973 19.149428550412676 L -159.4459244250547 18.11019100014527 L -159.22684184065736 17.07265805698387 L -158.9872899617159 16.03720865426791 L -158.72794356403656 15.004208252655864 L -158.44950780573274 13.974007829715987 L -158.15271669597124 12.946942915810462 L -157.83833149770678 11.92333267894789 L -157.50713906806098 10.903479061141741 L -157.15995014015408 9.887665968667942 L -156.79759755033623 8.876158518463795 L -156.42093441489544 7.869202342753816 L -156.03083226044126 6.867022953825187 L -155.62817911227384 5.869825170709638 L -155.21387754514745 4.8777926093539214 L -154.7888427009295 3.89108723768737 L -154.35400027773355 2.9098489968134222 L -153.91028449517435 1.9341954893693127 L -153.4586360404499 0.9642217359119798 L -153 1.8737096026954503e-14 L -152.53532378152804 -0.9584203175490073 L -152.06555503119333 -1.9110127149365492 L -151.59163955079399 -2.8577735561014603 L -151.1145192197603 -3.798721967973896 L -150.6351299267664 -4.733899668553349 L -150.15439951574646 -5.66337072629036 L -149.67324575106488 -6.587221251441517 L -149.19257430654596 -7.505559020255666 L -148.71327678301012 -8.418513033035648 L -148.23622875889697 -9.326233007301905 L -147.76228787847393 -10.228888807466403 L -147.29229198204104 -11.126669812599511 L -146.8270572824419 -12.019784224045756 L -146.36737659207807 -12.908458314811448 L -145.9140176045059 -13.792935622809555 L -145.46772123456194 -14.673476090203899 L -145.0292000208243 -15.55035515124567 L -144.59913659406786 -16.423862771140072 L -144.17818221521324 -17.29430243861743 L -143.76695538610392 -18.16199011501588 L -143.36604053627073 -19.02725314280381 L -142.97598678866308 -19.890429116586937 L -142.59730680713568 -20.751864719751758 L -142.23047572828636 -21.611914529996177 L -141.87593018003807 -22.470939797088295 L -141.5639816468335 -23.334238015547403 L -141.2863978807836 -24.201288540176748 L -141.01675810894932 -25.068127602658713 L -140.75526021329722 -25.935013239103736 L -140.5020721061683 -26.802203687100334 L -140.2573314283468 -27.669956446967387 L -140.0211453167378 -28.53852734112846 L -139.79359024210126 -29.40816957427082 L -139.57471191712187 -30.279132796954997 L -139.36452527492878 -31.151662175335662 L -139.1630145180118 -32.025997469645326 L -138.97013323731392 -32.902372124071874 L -138.78580460111482 -33.78101237063724 L -138.6099216131538 -34.66213634965095 L -138.44234743927967 -35.545953249273765 L -138.28291580175053 -36.432662466679865 L -138.13143144015055 -37.32245279325342 L -137.98767063773158 -38.215501626195866 L -137.85138181183603 -39.111974208853574 L -137.72228616690603 -40.012022902004716 L -137.6017886464368 -40.91629503254413 L -137.5437925220398 -41.8414486170775 L -137.49664644440452 -42.77279070218397 L -137.45981432953135 -43.71046683205354 L -137.43272770807346 -44.654600139366934 L -137.4147871104773 -45.60529064370659 L -137.40536351972725 -46.56261461173012 L -137.4037998881511 -47.52662398114983 L -137.40941271459937 -48.497345850393415 L -137.42149367817166 -49.474782035650286 L -137.43931132453824 -50.45890869683164 L -137.46211280078623 -51.44967603379063 L -137.48912563461215 -52.44700805396477 L -137.51955955358497 -53.45080241241383 L -137.55260834011696 -54.46093032503532 L -137.58745171770457 -55.47723655554506 L -137.62325726393306 -56.49953947661548 L -137.65918234568787 -57.52763120536588 L -137.69437607197 -58.56127781320074 L -137.7279812596811 -59.600219609793356 L -137.75913640772393 -60.64417150081324 L -137.7869776747533 -61.692823418797076 L -137.81064085591535 -62.74584082636675 L -137.8292633539258 -63.802865290800604 L -137.84198613986155 -64.86351512877309 L -137.8479556990771 -65.92738611988464 L -137.84632595770285 -66.99405228741789 L -137.83626018523938 -68.06306674457049 L -137.81693286883205 -69.13396260423657 L -137.7875315548873 -70.20625395023173 L -137.74725865378255 -71.2794368676877 L -137.69533320352093 -72.35299053017621 L -137.63099258829118 -73.42637834096443 L -137.55349420801238 -74.49904912565063 L -137.46211709507142 -75.57043837328284 L -137.35616347459845 -76.63996952292554 L -137.23496026477164 -77.70705529250725 L -137.09786051379606 -78.77109904665927 L -136.94424477036483 -79.83149620014072 L -136.77352238457885 -80.88763565333858 L -136.5851327364786 -81.93890125623287 L -136.37854638952405 -82.9846732971303 L -136.15326616654926 -84.0243300123892 L -135.90882814591055 -85.05724911328879 L -135.64480257574942 -86.08280932613678 L -135.36079470449465 -87.10039194165891 L -135.05644552593716 -88.10938236967415 L -134.73143243742285 -89.10917169502987 L -134.3854698099247 -90.09915823075119 L -134.01830946897306 -91.0787490643515 L -133.62974108564225 -92.04736159325064 L -133.219592477014 -93.00442504526056 L -132.78772981575895 -93.9493819801199 L -132.33405774870104 -94.88168976809214 L -131.85851942445197 -95.80082204168538 L -131.36109643042315 -96.70627011660386 L -130.84180863974353 -97.5975443781072 L -130.30071396883085 -98.47417562902385 L -129.73790804657776 -99.33571639575192 L -129.15352379632859 -100.18174218867077 L -128.54773093203244 -101.01185271349108 L -127.9207353701621 -101.82567303018169 L -127.27277855919118 -102.62285465623219 L -126.60413672861704 -103.4030766111407 L -125.91512005970696 -104.16604639915167 L -125.20607178033251 -104.91150092741528 L -124.47736718643169 -105.6392073568941 L -123.72941259281335 -106.3489638835011 L -122.96264421618051 -107.04060044712122 L -122.1775269934076 -107.71397936634361 L -121.37455333825477 -108.36899589690965 L -120.55424183984229 -109.00557871206838 L -119.71713590634153 -109.62369030322154 L -118.86380235746066 -110.22332729943427 L -117.99482996941705 -110.80452070458973 L -117.11082797619281 -111.36733605116558 L -116.21242453096377 -111.911873469819 L -115.30026513167728 -112.43826767417484 L -114.37501101482749 -112.94668786042268 L -113.43733752154175 -113.43733752154179 L -112.48793244014324 -113.91045417618507 L -111.52749432940067 -114.36630901247032 L -110.55673082670523 -114.80520644713803 L -109.57635694543774 -115.22748360075147 L -108.58709336579945 -115.63350968982618 L -107.58966472338021 -116.02368533698733 L -106.58479789972519 -116.39844180046151 L -105.5732203191427 -116.75824012441852 L -104.55565825596067 -117.10357021187765 L -103.53283515639808 -117.43494982209604 L -102.50546997916534 -117.75292349454928 L -101.47427555884234 -118.05806140180631 L -100.43995699601179 -118.35095813378466 L -99.40321007804027 -118.63223141605287 L -98.36471973430942 -118.90252076501841 L -97.32515852959583 -119.16248608300803 L -96.2851851991847 -119.41280619640565 L -95.24544322919085 -119.65417734016606 L -94.2065594854204 -119.88731159216657 L -93.16914289398224 -120.11293526099476 L -92.13378317670347 -120.3317872308986 L -91.10104964426199 -120.54461726774362 L -90.07149004978018 -120.75218428993072 L -89.04562950546907 -120.95525460832899 L -88.02396946473435 -121.15460013936696 L -87.0069867719804 -121.35099659550734 L -85.99513278217074 -121.5452216573978 L -84.98883255200957 -121.73805313205236 L -83.98848410442649 -121.93026710146407 L -82.99445776784424 -122.12263606609022 L -82.00709559151801 -122.31592708767612 L -81.02671083803133 -122.51089993590081 L -80.05358755382932 -122.70830524333387 L -79.08798021847198 -122.90888267318431 L -78.1301134730763 -123.11335910430796 L -77.18018192821906 -123.32244683791015 L -76.23835005135714 -123.53684183034217 L -75.30475213362536 -123.75722195633905 L -74.3794923356585 -123.98424530698749 L -73.46264481188906 -124.21854852663833 L -72.55425391256546 -124.46074519289847 L -71.65433446253778 -124.71142424374405 L -70.76287211566682 -124.97114845569284 L -69.89837571618631 -125.27370223717841 L -69.04815293121246 -125.59812391910582 L -68.20303845171722 -125.92867110040729 L -67.36295119077475 -126.26565609719773 L -66.52779129332461 -126.60936779949729 L -65.6974406883795 -126.9600708573516 L -64.87176368585108 -127.31800492049881 L -64.05060761617386 -127.6833839335749 L -63.23380351080605 -128.05639548871858 L -62.42116682157975 -128.43720023730606 L -61.61249817678569 -128.82593136240493 L -60.80758417178149 -129.2226941133973 L -60.00619819183679 -129.6275654040734 L -59.208101264847166 -130.040593475349 L -58.41304294147955 -130.4617976236074 L -57.620762200251455 -130.89116799551 L -56.830988374983754 -131.3286654499639 L -56.043442102023334 -131.77422148777234 L -55.2578362845821 -132.22773824933626 L -54.47387707150956 -132.68908858060865 L -53.695033193428195 -133.16746192980509 L -52.935861512395405 -133.70072421282083 L -52.178552572514576 -134.24628338693125 L -51.422657871846354 -134.80380542076523 L -50.66772644050736 -135.37291707629157 L -49.91330625217224 -135.95320656746748 L -49.15894562889385 -136.54422431004915 L -48.4041946354375 -137.1454837610394 L -47.648606459372765 -137.7564623460243 L -46.89173877320992 -138.376602472444 L -46.13315507493368 -139.00531262662764 L -45.37242600335289 -139.6419685522215 L -44.60913062476361 -140.28591450744167 L -43.84285768751413 -140.93646459838484 L -43.073206841152206 -141.59290418545174 L -42.29978981694545 -142.25449135974998 L -41.52223156667389 -142.92045848617911 L -40.74017135672119 -143.59001380972776 L -39.95326381461392 -144.2623431213647 L -39.161179925300836 -144.93661147975044 L -38.36360797460367 -145.61196498486206 L -37.56025443742091 -146.28753259949286 L -36.75084480842642 -146.96242801446562 L -35.935124373159944 -147.63575155329386 L -35.112858917581235 -148.30659211191818 L -34.2838353743244 -148.97402912906253 L -33.44786240407129 -149.63713458266878 L -32.60477091064058 -150.29497500780658 L -31.75441448857105 -150.9466135313937 L -30.896669802170162 -151.59111191901715 L -30.031436895180786 -152.22753262911309 L -29.158639430417697 -152.85494086973492 L -28.278224858910882 -153.47240665313407 L -27.39016451829352 -154.0790068433701 L -26.494453660359206 -154.67382719218423 L -25.591111407913832 -155.25596435838878 L -24.68018064123643 -155.82452790606 L -23.761727814655746 -156.3786422768697 L -22.83584270394431 -156.9174487319419 L -21.90263808541328 -157.44010725869572 L -20.962249347785477 -157.94579843820696 L -20.014834038098442 -158.43372526871732 L -19.060571343077243 -158.90311494101297 L -18.099661507583807 -159.3532205615124 L -17.132325191927297 -159.78332281901598 L -16.158802769981943 -160.19273159120542 L -15.179353570218518 -160.58078748711924 L -14.19425506191555 -160.94686332197787 L -13.203801988956716 -161.29036552089124 L -12.20830545377177 -161.61073544814664 L -11.208091954104214 -161.90745065894941 L -10.203502375424364 -162.18002607066916 L -9.194890941921505 -162.42801505083415 L -8.182624129120576 -162.65101041931138 L -7.167079541277603 -162.8486453623106 L -6.148644756795104 -163.02059425605958 L -5.127716144994063 -163.16657339820787 L -4.1046976576472165 -163.28634164523626 L -3.07999959875563 -163.37970095436785 L -2.0540373761002275 -163.4464968287039 L -1.0272302381571194 -163.48661866453367 L -3.003446274908883e-14 -163.5 L 1.0272302381572047 -163.48661866453367 L 2.0540373761001676 -163.4464968287039 L 3.079999598755715 -163.37970095436785 L 4.104697657647301 -163.2863416452362 L 5.127716144994148 -163.16657339820785 L 6.148644756795189 -163.02059425605955 L 7.167079541277542 -162.84864536231058 L 8.182624129120661 -162.65101041931138 L 9.194890941921445 -162.42801505083415 L 10.203502375424447 -162.18002607066916 L 11.208091954104153 -161.90745065894941 L 12.208305453771855 -161.61073544814664 L 13.203801988956796 -161.29036552089119 L 14.194255061915491 -160.94686332197787 L 15.179353570218604 -160.58078748711924 L 16.158802769981882 -160.19273159120542 L 17.132325191927382 -159.78332281901595 L 18.09966150758375 -159.3532205615124 L 19.060571343077328 -158.90311494101294 L 20.014834038098506 -158.4337252687172 L 20.96224934778556 -157.94579843820696 L 21.902638085413354 -157.44010725869563 L 22.83584270394425 -156.91744873194196 L 23.761727814655824 -156.37864227686964 L 24.680180641236372 -155.82452790606 L 25.59111140791391 -155.25596435838875 L 26.49445366035915 -154.67382719218426 L 27.3901645182936 -154.07900684337008 L 28.278224858910956 -153.47240665313404 L 29.158639430417765 -152.85494086973486 L 30.03143689518085 -152.227532629113 L 30.896669802170116 -151.59111191901724 L 31.75441448857113 -150.9466135313937 L 32.604770910640525 -150.2949750078066 L 33.447862404071365 -149.63713458266878 L 34.28383537432433 -148.9740291290625 L 35.11285891758131 -148.30659211191812 L 35.935124373159994 -147.63575155329374 L 36.75084480842637 -146.96242801446567 L 37.56025443742097 -146.28753259949278 L 38.363607974603624 -145.61196498486214 L 39.1611799253009 -144.93661147975038 L 39.95326381461387 -144.2623431213647 L 40.740171356721255 -143.59001380972774 L 41.52223156667396 -142.9204584861791 L 42.29978981694552 -142.25449135974995 L 43.07320684115225 -141.59290418545163 L 43.8428576875141 -140.93646459838493 L 44.60913062476365 -140.2859145074416 L 45.372426003352864 -139.64196855222158 L 46.13315507493375 -139.00531262662759 L 46.89173877320989 -138.37660247244406 L 47.648606459372836 -137.75646234602425 L 48.40419463543756 -137.14548376103934 L 49.158945628893925 -136.54422431004915 L 49.91330625217228 -135.95320656746736 L 50.66772644050731 -135.37291707629157 L 51.42265787184641 -134.80380542076514 L 52.178552572514526 -134.24628338693128 L 52.93586151239547 -133.7007242128208 L 53.69503319342815 -133.16746192980514 L 54.47387707150963 -132.68908858060863 L 55.257836284582176 -132.22773824933623 L 56.043442102023405 -131.7742214877723 L 56.83098837498381 -131.32866544996384 L 57.62076220025142 -130.89116799551002 L 58.41304294147961 -130.46179762360737 L 59.208101264847116 -130.04059347534903 L 60.00619819183685 -129.62756540407338 L 60.80758417178144 -129.22269411339732 L 61.61249817678576 -128.82593136240487 L 62.421166821579824 -128.437200237306 L 63.233803510806 -128.0563954887186 L 64.05060761617392 -127.68338393357487 L 64.87176368585104 -127.31800492049884 L 65.69744068837957 -126.96007085735157 L 66.52779129332457 -126.6093677994973 L 67.36295119077481 -126.26565609719769 L 68.20303845171728 -125.92867110040726 L 69.04815293121251 -125.59812391910579 L 69.8983757161864 -125.27370223717841 L 70.76287211566677 -124.97114845569286 L 71.65433446253786 -124.71142424374405 L 72.5542539125654 -124.46074519289849 L 73.46264481188915 -124.21854852663832 L 74.37949233565845 -123.98424530698752 L 75.30475213362541 -123.75722195633902 L 76.23835005135723 -123.53684183034217 L 77.18018192821913 -123.32244683791014 L 78.13011347307639 -123.11335910430795 L 79.08798021847193 -122.9088826731843 L 80.05358755382942 -122.70830524333387 L 81.02671083803128 -122.51089993590081 L 82.00709559151811 -122.31592708767613 L 82.9944577678442 -122.12263606609027 L 83.98848410442656 -121.93026710146401 L 84.98883255200964 -121.73805313205233 L 85.99513278217066 -121.54522165739779 L 87.00698677198048 -121.35099659550733 L 88.02396946473426 -121.15460013936695 L 89.04562950546917 -120.95525460832899 L 90.07149004978014 -120.75218428993074 L 91.10104964426212 -120.54461726774365 L 92.13378317670356 -120.33178723089858 L 93.16914289398231 -120.1129352609947 L 94.20655948542051 -119.88731159216658 L 95.24544322919077 -119.65417734016606 L 96.28518519918478 -119.41280619640563 L 97.32515852959574 -119.16248608300803 L 98.36471973430956 -118.90252076501844 L 99.4032100780402 -118.63223141605289 L 100.4399569960119 -118.35095813378467 L 101.47427555884244 -118.05806140180628 L 102.50546997916543 -117.75292349454925 L 103.53283515639808 -117.43494982209604 L 104.55565825596057 -117.10357021187761 L 105.57322031914278 -116.75824012441848 L 106.58479789972516 -116.39844180046147 L 107.58966472338031 -116.02368533698731 L 108.58709336579949 -115.63350968982623 L 109.57635694543781 -115.22748360075144 L 110.55673082670525 -114.80520644713802 L 111.5274943294006 -114.36630901247034 L 112.48793244014324 -113.91045417618507 L 113.43733752154172 -113.43733752154178 L 114.3750110148276 -112.94668786042267 L 115.30026513167724 -112.43826767417478 L 116.21242453096384 -111.91187346981897 L 117.11082797619282 -111.36733605116558 L 117.99482996941715 -110.8045207045897 L 118.86380235746066 -110.22332729943426 L 119.71713590634145 -109.62369030322155 L 120.55424183984229 -109.00557871206838 L 121.37455333825477 -108.36899589690965 L 122.17752699340767 -107.71397936634352 L 122.9626442161805 -107.04060044712121 L 123.7294125928134 -106.34896388350104 L 124.47736718643172 -105.63920735689412 L 125.20607178033256 -104.9115009274152 L 125.91512005970698 -104.16604639915167 L 126.60413672861698 -103.40307661114076 L 127.27277855919124 -102.62285465623212 L 127.9207353701621 -101.82567303018168 L 128.54773093203247 -101.01185271349102 L 129.15352379632859 -100.18174218867074 L 129.73790804657781 -99.33571639575185 L 130.30071396883085 -98.47417562902385 L 130.84180863974356 -97.59754437810713 L 131.36109643042312 -96.70627011660385 L 131.858519424452 -95.80082204168538 L 132.33405774870107 -94.88168976809207 L 132.78772981575898 -93.9493819801199 L 133.21959247701406 -93.00442504526049 L 133.62974108564225 -92.04736159325064 L 134.01830946897303 -91.07874906435138 L 134.3854698099247 -90.09915823075119 L 134.73143243742282 -89.10917169502993 L 135.0564455259372 -88.10938236967414 L 135.36079470449465 -87.10039194165891 L 135.6448025757494 -86.08280932613668 L 135.9088281459106 -85.05724911328882 L 136.15326616654926 -84.02433001238911 L 136.37854638952405 -82.98467329713029 L 136.58513273647858 -81.93890125623275 L 136.77352238457888 -80.88763565333858 L 136.94424477036478 -79.83149620014075 L 137.097860513796 -78.77109904665916 L 137.2349602647717 -77.70705529250726 L 137.35616347459847 -76.63996952292545 L 137.46211709507145 -75.57043837328285 L 137.55349420801238 -74.49904912565053 L 137.63099258829118 -73.42637834096442 L 137.6953332035209 -72.35299053017611 L 137.74725865378255 -71.27943686768769 L 137.78753155488727 -70.20625395023177 L 137.81693286883205 -69.13396260423649 L 137.8362601852394 -68.06306674457049 L 137.84632595770285 -66.99405228741779 L 137.84795569907712 -65.92738611988464 L 137.8419861398615 -64.86351512877299 L 137.82926335392588 -63.80286529080063 L 137.81064085591535 -62.7458408263668 L 137.7869776747533 -61.69282341879707 L 137.75913640772387 -60.644171500813215 L 137.72798125968112 -59.60021960979328 L 137.69437607197003 -58.56127781320073 L 137.65918234568784 -57.52763120536578 L 137.62325726393306 -56.499539476615475 L 137.58745171770457 -55.47723655554498 L 137.552608340117 -54.46093032503533 L 137.5195595535849 -53.45080241241387 L 137.4891256346122 -52.4470080539647 L 137.4621128007862 -51.4496760337906 L 137.43931132453818 -50.45890869683155 L 137.4214936781717 -49.47478203565029 L 137.4094127145994 -48.49734585039333 L 137.40379988815113 -47.526623981149825 L 137.4053635197272 -46.56261461173003 L 137.41478711047733 -45.60529064370659 L 137.43272770807346 -44.654600139366984 L 137.45981432953135 -43.71046683205346 L 137.49664644440452 -42.77279070218396 L 137.54379252203984 -41.84144861707743 L 137.6017886464368 -40.91629503254412 L 137.72228616690606 -40.01202290200464 L 137.85138181183603 -39.11197420885356 L 137.9876706377316 -38.21550162619592 L 138.13143144015055 -37.322452793253404 L 138.28291580175053 -36.43266246667986 L 138.44234743927967 -35.54595324927369 L 138.6099216131538 -34.662136349650936 L 138.78580460111482 -33.78101237063717 L 138.97013323731395 -32.902372124071874 L 139.1630145180118 -32.025997469645255 L 139.36452527492878 -31.15166217533565 L 139.57471191712187 -30.279132796955047 L 139.79359024210126 -29.408169574270808 L 140.0211453167378 -28.538527341128454 L 140.2573314283468 -27.669956446967312 L 140.50207210616833 -26.802203687100324 L 140.75526021329725 -25.93501323910366 L 141.01675810894935 -25.068127602658702 L 141.28639788078362 -24.201288540176673 L 141.56398164683353 -23.334238015547392 L 141.875930180038 -22.470939797088345 L 142.23047572828636 -21.611914529996103 L 142.59730680713568 -20.75186471975175 L 142.9759867886631 -19.890429116586866 L 143.36604053627076 -19.027253142803804 L 143.76695538610392 -18.161990115015804 L 144.17818221521324 -17.294302438617418 L 144.5991365940679 -16.423862771139998 L 145.0292000208243 -15.55035515124566 L 145.46772123456194 -14.673476090203888 L 145.91401760450591 -13.792935622809482 L 146.36737659207807 -12.908458314811439 L 146.8270572824419 -12.019784224045678 L 147.29229198204106 -11.126669812599504 L 147.76228787847396 -10.22888880746633 L 148.23622875889694 -9.32623300730189 L 148.7132767830101 -8.418513033035701 L 149.1925743065459 -7.505559020255652 L 149.6732457510649 -6.587221251441507 L 150.15439951574646 -5.663370726290282 L 150.6351299267664 -4.733899668553337 L 151.1145192197603 -3.7987219679738176 L 151.59163955079407 -2.85777355610145 L 152.06555503119338 -1.9110127149364708 L 152.535323781528 -0.9584203175489955 L 152.99999999999997 -3.7474192053909e-14 L 146.99999999999997 -3.600461589493218e-14 L 146.79924571894028 -0.9223790018593578 L 146.5930943271079 -1.842240125474299 L 146.38195135849188 -2.7595616151552838 L 146.166220792966 -3.674331472374796 L 145.94630416982372 -4.5865473828847385 L 145.72259970748217 -5.4962166143904785 L 145.49550143138939 -6.403355885072516 L 145.26539831215254 -7.3079912033193555 L 145.032673415878 -8.210157679123036 L 144.79770306868653 -9.109899307659177 L 144.5608560373315 -10.007268725658573 L 144.32249272781047 -10.902326941245738 L 144.08296440381753 -11.795143037998088 L 143.84261242683465 -12.685793854051141 L 143.60176751961046 -13.574363637140205 L 143.36074905471816 -14.460943676543469 L 143.11986436982318 -15.345631912947859 L 142.8794081112298 -16.228532527329175 L 142.63966160720477 -17.109755509989707 L 142.40089227250917 -17.989416210957227 L 142.16335304549014 -18.86763487300178 L 141.92728185901152 -19.744536148572013 L 141.69290114641686 -20.62024860200558 L 141.4604173836386 -21.494904198402814 L 141.2300206684775 -22.36863778059954 L 140.9719700803088 -23.236655716430462 L 140.6950111236942 -24.09998847334903 L 140.42601950823183 -24.963113767273537 L 140.16519309030005 -25.82628978092738 L 139.91269975573113 -26.689774898348887 L 139.6686771178808 -27.553826766136797 L 139.43323228530724 -28.41870135281981 L 139.206441699506 -29.28465200900888 L 138.98835104298092 -30.15192853100181 L 138.77897521776552 -31.020776230497727 L 138.57829839433987 -31.891435013075625 L 138.38627413072467 -32.764138468065916 L 138.202825561366 -33.639112972422936 L 138.02784565525974 -34.5165768111737 L 137.86119754260253 -35.396739316974774 L 137.70271490909306 -36.27980003126983 L 137.55220245685058 -37.16594788947947 L 137.40943643075758 -38.05536043260369 L 137.2741652088844 -38.94820304754317 L 137.1461099554999 -39.844628238381105 L 137.02325509703067 -40.74426638650268 L 136.85103527923613 -41.630708706192436 L 136.68038997697144 -42.518867657923124 L 136.5110953790584 -43.408786312405915 L 136.3429139160654 -44.3004981731173 L 136.17559485369998 -45.19402687637763 L 136.00887491516943 -46.08938591789989 L 135.84247893099172 -46.98657840668095 L 135.67612051467586 -47.885596847040304 L 135.50950276263194 -48.786422949538135 L 135.34231897661755 -49.68902747142417 L 135.17425340697548 -50.593370087198515 L 135.0049820148722 -51.49939928977812 L 134.83417325170498 -52.4070523226904 L 134.66148885380775 -53.31625514362462 L 134.48658465055294 -54.226922419597265 L 134.30911138392005 -55.138957553896155 L 134.1287155375756 -56.052252744887596 L 133.94504017349374 -56.966689076686805 L 133.75772577413036 -57.88213664160066 L 133.56641108815637 -58.79845469417535 L 133.37073397775094 -59.715491836587155 L 133.17033226545624 -60.63308623503894 L 132.96484457860205 -61.55106586673306 L 132.75391118931654 -62.46924879691573 L 132.53717484815814 -63.387443485400084 L 132.31428160942 -64.30544912189784 L 132.0848816461861 -65.22305598941222 L 131.84863005324522 -66.1400458548611 L 131.6051876360045 -67.05619238603387 L 131.35422168358116 -67.97126159390159 L 131.09540672429463 -68.8850122992399 L 130.8284252618281 -69.79719662244754 L 130.55296849037921 -70.7075604953824 L 130.2687369871738 -71.61584419397518 L 129.97544138077856 -72.52178289031652 L 129.6728029937064 -73.42510722286401 L 129.3605544578782 -74.3255438833553 L 129.0384403015729 -75.22281621897228 L 128.70621750656923 -76.11664484824676 L 128.3636560342597 -77.00674828916524 L 128.01053931959575 -77.89284359788503 L 127.64666473180318 -78.77464701644368 L 127.27184400088987 -79.65187462781498 L 126.8859036090567 -80.52424301663399 L 126.4886851462058 -81.39146993389946 L 126.08004562883322 -82.25327496393653 L 125.65985778168229 -83.10938019189932 L 125.22801028162675 -83.95951087007438 L 124.78440796334564 -84.80339608125263 L 124.32897198644723 -85.64076939742904 L 123.86163996379288 -86.47136953209973 L 123.38236605086739 -87.29494098443604 L 122.89112099613811 -88.11123467362349 L 122.3878921524394 -88.92000856168085 L 121.87268344951555 -89.72102826308789 L 121.34551532794724 -90.51406763958671 L 120.80642463478259 -91.29890937854509 L 120.25546448128566 -92.07534555331146 L 119.6927040633042 -92.84317816402985 L 119.11822844485292 -93.60221965742336 L 118.53213830559164 -94.35229342410989 L 117.93454965296819 -95.09323427205652 L 117.3255934998756 -95.82488887484334 L 116.70541550876013 -96.54711619345831 L 116.07417560318962 -97.25978787041407 L 115.43204754797434 -97.96278859503794 L 114.7792184990017 -98.6560164388577 L 114.11588852401724 -99.33938316007841 L 113.44227009565503 -100.01281447621602 L 112.75858755807829 -100.67625030403606 L 112.06507656865833 -101.32964496601936 L 111.36198351616906 -101.97296736266411 L 110.64956491703447 -102.60620111001168 L 109.92808679120803 -103.22934464187449 L 109.19782401931359 -103.84241127632649 L 108.45905968271408 -104.44542924610793 L 107.71208438821081 -105.03844169268628 L 106.95719557911079 -105.6215066238017 L 106.19469683442246 -106.1946968344225 L 105.4248971579677 -106.75809979112113 L 104.64811025921158 -107.31181747997928 L 103.86465382763065 -107.85596621821728 L 103.07484880244317 -108.39067642983866 L 102.27901863953585 -108.91609238566905 L 101.47748857741713 -109.43237190826014 L 100.67058490402276 -109.93968604222052 L 99.85863422619413 -110.43821869061952 L 99.04196274362928 -110.92816621820239 L 98.22089552909655 -111.40973702223572 L 97.39575581666881 -111.88315107188951 L 96.56686429971833 -112.34863941714147 L 95.73453844037415 -112.80644366826843 L 94.89909179211051 -113.25681544706971 L 94.06083333709742 -113.70001581103644 L 93.22006683989544 -114.13631465175749 L 92.37709021903625 -114.56599006891716 L 91.53219493797089 -114.98932772130763 L 90.68566541682173 -115.40662015633892 L 89.83777846630626 -115.81816611958965 L 88.98880274514796 -116.22426984599456 L 88.13899824221866 -116.62524033431662 L 87.28861578458944 -117.02139060659883 L 86.43789657260163 -117.41303695433234 L 85.58707174298748 -117.80049817311726 L 84.73636196100428 -118.18409478762649 L 83.88597704245775 -118.56414826871261 L 83.03611560642084 -118.94098024452354 L 82.18696475936159 -119.31491170751366 L 81.33869981132099 -119.686262219253 L 80.4914840246888 -120.05534911494878 L 79.64546839604273 -120.42248670960144 L 78.80079147143168 -120.78798550771747 L 77.9575791953907 -121.15215141850133 L 77.11594479389392 -121.51528497843893 L 76.27598869135657 -121.87768058317536 L 75.43779846171576 -122.23962573057156 L 74.60144881352583 -122.60140027680217 L 73.76700160891916 -122.96327570733492 L 72.93450591619704 -123.32551442459467 L 72.10399809572567 -123.68836905408736 L 71.27550191873193 -124.05208177071306 L 70.44902871850377 -124.41688364695833 L 69.6060256407512 -124.74974476429246 L 68.7591007267515 -125.07233991107948 L 67.91729552951652 -125.40108131429292 L 67.08052883147562 -125.73628136133672 L 66.24870064647808 -126.07822901269785 L 65.42169277200668 -126.42718898806345 L 64.5993693860073 -126.7834010059858 L 63.7815776865199 -127.14707907908412 L 62.96814857218266 -127.51841086664747 L 62.15889736158927 -127.89755708636619 L 61.35362454937719 -128.28465098678396 L 60.55211659684239 -128.6797978819177 L 59.75414675478976 -129.0830747493487 L 58.95947591625114 -129.494529892938 L 58.1678534966378 -129.91418267116526 L 57.37901833882322 -130.3420232919375 L 56.592699640602945 -130.77801267455345 L 55.808617901921075 -131.22208237935277 L 55.02648588921573 -131.67413460541414 L 54.24600961419655 -132.13404225650797 L 53.4631209786901 -132.59230331288177 L 52.662654223921855 -133.0106813706808 L 51.861802391304934 -133.43134060885345 L 51.06039206887032 -133.85413049465205 L 50.2582488329342 -134.2788838107635 L 49.45519785228452 -134.7054169378729 L 48.65106448949973 -135.13353017629368 L 47.845674897773584 -135.56300810600723 L 47.0388566116337 -135.99361998436592 L 46.23043912996272 -136.4251201806195 L 45.42025448976074 -136.85724864633582 L 44.60813782911121 -137.28973142070032 L 43.793927937853184 -137.72228116959135 L 42.977467794493144 -138.15459775724875 L 42.15860508793883 -138.58636884926975 L 41.33719272267474 -139.01727054559342 L 40.513089306054646 -139.4469680420564 L 39.686159616434196 -139.87511631903604 L 38.85627505092223 -140.30136085562853 L 38.02331405159202 -140.7253383677453 L 37.18716250904837 -141.14667756845347 L 36.34771414231861 -141.5649999488283 L 35.50487085409445 -141.97992057753677 L 34.65854306042901 -142.39104891732077 L 33.80864999405726 -142.7979896565095 L 32.955119980588606 -143.20034355364805 L 32.09789068689194 -143.5977082932989 L 31.236909341070376 -143.98967935104145 L 30.372132923506552 -144.37585086567145 L 29.503528328531743 -144.75581651658177 L 28.631072496361856 -145.12917040429136 L 27.75475251501666 -145.4955079320796 L 26.874565692028742 -145.85442668667716 L 25.99051959582691 -146.20552731596533 L 25.10263206676224 -146.54841440164023 L 24.21093119783222 -146.88269732480728 L 23.31545528523437 -147.20799112248693 L 22.4162527489713 -147.5239173330314 L 21.51338202380233 -147.8301048284767 L 20.60691142092626 -148.1261906318826 L 19.696918960851136 -148.4118207177485 L 18.783492177992702 -148.68665079362916 L 17.86672789761542 -148.95034706111892 L 16.946731985805105 -149.20258695442027 L 16.023619073240063 -149.44305985476242 L 15.097512253591143 -149.67146777899387 L 14.16854275745844 -149.88752604073048 L 13.236849602809986 -150.090963882506 L 12.302579222960034 -150.28152507743866 L 11.365885073176782 -150.45896849899856 L 10.42692721707482 -150.62306865753524 L 9.485871893997452 -150.77361620230317 L 8.542891068645462 -150.91041838780262 L 7.598161964261539 -151.03329950333773 L 6.651866580716497 -151.14210126478042 L 5.704191198892619 -151.23668316761638 L 4.7553258727879815 -151.3169228004415 L 3.8054639108063255 -151.38271611816992 L 2.8548013477214353 -151.43397767430926 L 1.903536408830207 -151.4706408117553 L 0.9518689678343422 -151.492657811657 L -2.78300985106236e-14 -151.5 L -0.9518689678342631 -151.492657811657 L -1.9035364088302622 -151.4706408117553 L -2.8548013477213563 -151.43397767430926 L -3.8054639108062474 -151.38271611816998 L -4.755325872787902 -151.31692280044152 L -5.7041911988925404 -151.23668316761638 L -6.651866580716551 -151.1421012647804 L -7.59816196426146 -151.03329950333773 L -8.542891068645517 -150.91041838780262 L -9.485871893997375 -150.77361620230317 L -10.426927217074876 -150.62306865753524 L -11.365885073176702 -150.45896849899856 L -12.302579222959956 -150.28152507743866 L -13.23684960281004 -150.090963882506 L -14.16854275745836 -149.88752604073048 L -15.097512253591196 -149.67146777899387 L -16.023619073239985 -149.44305985476245 L -16.946731985805158 -149.20258695442027 L -17.86672789761534 -148.95034706111895 L -18.783492177992635 -148.6866507936292 L -19.69691896085106 -148.4118207177485 L -20.60691142092618 -148.12619063188262 L -21.51338202380239 -147.8301048284767 L -22.416252748971225 -147.52391733303145 L -23.315455285234425 -147.20799112248693 L -24.21093119783215 -146.88269732480734 L -25.102632066762293 -146.5484144016402 L -25.990519595826836 -146.20552731596536 L -26.874565692028668 -145.8544266866772 L -27.75475251501659 -145.49550793207962 L -28.631072496361785 -145.1291704042914 L -29.503528328531786 -144.75581651658172 L -30.372132923506477 -144.37585086567145 L -31.23690934107043 -143.98967935104142 L -32.09789068689186 -143.59770829329892 L -32.95511998058866 -143.20034355364808 L -33.808649994057184 -142.79798965650954 L -34.65854306042895 -142.39104891732083 L -35.504870854094506 -141.97992057753675 L -36.34771414231854 -141.56499994882836 L -37.18716250904841 -141.14667756845344 L -38.02331405159194 -140.72533836774534 L -38.85627505092228 -140.3013608556285 L -39.686159616434125 -139.87511631903604 L -40.51308930605458 -139.44696804205643 L -41.33719272267467 -139.01727054559348 L -42.15860508793875 -138.5863688492698 L -42.977467794493194 -138.15459775724872 L -43.79392793785312 -137.7222811695914 L -44.60813782911126 -137.2897314207003 L -45.420254489760666 -136.85724864633585 L -46.23043912996276 -136.42512018061944 L -47.038856611633626 -135.99361998436595 L -47.84567489777352 -135.5630081060073 L -48.65106448949966 -135.1335301762937 L -49.45519785228446 -134.70541693787297 L -50.25824883293425 -134.27888381076346 L -51.060392068870264 -133.8541304946521 L -51.861802391304984 -133.43134060885342 L -52.66265422392179 -133.01068137068083 L -53.46312097869015 -132.59230331288174 L -54.24600961419649 -132.13404225650797 L -55.026485889215664 -131.6741346054142 L -55.808617901921004 -131.2220823793528 L -56.59269964060289 -130.7780126745535 L -57.37901833882326 -130.34202329193744 L -58.16785349663774 -129.91418267116526 L -58.959475916251186 -129.49452989293798 L -59.754146754789694 -129.08307474934873 L -60.55211659684244 -128.67979788191766 L -61.353624549377116 -128.284650986784 L -62.1588973615892 -127.89755708636623 L -62.96814857218271 -127.51841086664746 L -63.781577686519846 -127.14707907908415 L -64.59936938600734 -126.78340100598577 L -65.42169277200661 -126.42718898806348 L -66.24870064647814 -126.07822901269783 L -67.08052883147556 -125.73628136133676 L -67.91729552951645 -125.40108131429295 L -68.75910072675143 -125.07233991107951 L -69.60602564075111 -124.74974476429247 L -70.44902871850381 -124.4168836469583 L -71.27550191873185 -124.05208177071309 L -72.10399809572574 -123.68836905408736 L -72.93450591619695 -123.3255144245947 L -73.7670016089192 -122.96327570733489 L -74.60144881352578 -122.6014002768022 L -75.43779846171567 -122.23962573057157 L -76.27598869135652 -121.87768058317543 L -77.11594479389382 -121.51528497843893 L -77.95757919539074 -121.15215141850132 L -78.80079147143161 -120.7879855077175 L -79.64546839604276 -120.42248670960142 L -80.49148402468873 -120.05534911494878 L -81.33869981132106 -119.686262219253 L -82.18696475936153 -119.3149117075137 L -83.03611560642075 -118.94098024452357 L -83.88597704245782 -118.56414826871261 L -84.73636196100419 -118.18409478762652 L -85.58707174298753 -117.80049817311726 L -86.43789657260153 -117.41303695433236 L -87.28861578458947 -117.0213906065988 L -88.13899824221856 -116.62524033431663 L -88.98880274514788 -116.22426984599457 L -89.83777846630618 -115.81816611958968 L -90.68566541682165 -115.40662015633895 L -91.53219493797096 -114.98932772130762 L -92.37709021903618 -114.5659900689172 L -93.22006683989551 -114.13631465175747 L -94.06083333709732 -113.70001581103644 L -94.89909179211058 -113.2568154470697 L -95.7345384403741 -112.80644366826847 L -96.56686429971825 -112.34863941714151 L -97.39575581666874 -111.88315107188957 L -98.22089552909655 -111.40973702223572 L -99.04196274362934 -110.92816621820238 L -99.85863422619407 -110.43821869061958 L -100.67058490402277 -109.93968604222053 L -101.47748857741709 -109.4323719082602 L -102.27901863953583 -108.91609238566902 L -103.07484880244311 -108.39067642983872 L -103.86465382763063 -107.85596621821729 L -104.64811025921163 -107.31181747997924 L -105.4248971579677 -106.75809979112113 L -106.19469683442244 -106.19469683442249 L -106.95719557911072 -105.62150662380175 L -107.71208438821078 -105.03844169268628 L -108.45905968271401 -104.44542924610796 L -109.19782401931357 -103.84241127632649 L -109.92808679120799 -103.22934464187456 L -110.64956491703447 -102.6062011100117 L -111.36198351616909 -101.97296736266406 L -112.06507656865833 -101.32964496601936 L -112.75858755807829 -100.67625030403606 L -113.44227009565496 -100.01281447621608 L -114.11588852401722 -99.3393831600784 L -114.77921849900164 -98.65601643885776 L -115.43204754797435 -97.96278859503795 L -116.07417560318957 -97.25978787041414 L -116.70541550876011 -96.54711619345831 L -117.32559349987565 -95.8248888748433 L -117.93454965296813 -95.09323427205658 L -118.53213830559164 -94.3522934241099 L -119.11822844485286 -93.60221965742342 L -119.6927040633042 -92.84317816402987 L -120.2554644812856 -92.07534555331154 L -120.80642463478259 -91.29890937854509 L -121.3455153279472 -90.51406763958677 L -121.87268344951559 -89.72102826308792 L -122.38789215243939 -88.92000856168085 L -122.89112099613807 -88.11123467362354 L -123.38236605086738 -87.29494098443604 L -123.86163996379283 -86.47136953209979 L -124.32897198644721 -85.64076939742904 L -124.78440796334561 -84.8033960812527 L -125.22801028162675 -83.95951087007438 L -125.65985778168232 -83.10938019189926 L -126.08004562883319 -82.25327496393655 L -126.48868514620578 -81.39146993389946 L -126.88590360905668 -80.52424301663407 L -127.27184400088987 -79.65187462781499 L -127.64666473180316 -78.77464701644375 L -128.01053931959578 -77.89284359788506 L -128.36365603425966 -77.00674828916533 L -128.7062175065692 -76.11664484824676 L -129.03844030157293 -75.22281621897226 L -129.36055445787818 -74.32554388335538 L -129.67280299370637 -73.42510722286401 L -129.97544138077856 -72.5217828903166 L -130.26873698717378 -71.61584419397518 L -130.55296849037916 -70.70756049538245 L -130.8284252618281 -69.79719662244754 L -131.09540672429463 -68.88501229923999 L -131.35422168358116 -67.9712615939016 L -131.60518763600453 -67.05619238603383 L -131.84863005324522 -66.14004585486119 L -132.08488164618606 -65.2230559894122 L -132.31428160942 -64.30544912189792 L -132.53717484815812 -63.387443485400084 L -132.75391118931654 -62.46924879691581 L -132.96484457860203 -61.55106586673306 L -133.17033226545624 -60.63308623503889 L -133.37073397775094 -59.71549183658716 L -133.56641108815637 -58.79845469417537 L -133.75772577413036 -57.88213664160073 L -133.94504017349374 -56.96668907668682 L -134.12871553757557 -56.05225274488767 L -134.30911138392003 -55.138957553896155 L -134.48658465055294 -54.22692241959735 L -134.66148885380775 -53.31625514362463 L -134.83417325170504 -52.40705232269035 L -135.00498201487216 -51.49939928977819 L -135.17425340697548 -50.59337008719853 L -135.34231897661758 -49.689027471424254 L -135.50950276263194 -48.78642294953814 L -135.67612051467586 -47.88559684704039 L -135.84247893099172 -46.986578406680955 L -136.00887491516943 -46.08938591789997 L -136.17559485369998 -45.19402687637764 L -136.3429139160654 -44.30049817311725 L -136.5110953790584 -43.40878631240599 L -136.68038997697144 -42.51886765792313 L -136.85103527923613 -41.630708706192515 L -137.02325509703067 -40.74426638650269 L -137.14610995549987 -39.844628238381176 L -137.2741652088844 -38.948203047543174 L -137.40943643075758 -38.05536043260364 L -137.55220245685058 -37.165947889479476 L -137.70271490909306 -36.279800031269836 L -137.8611975426025 -35.39673931697485 L -138.02784565525974 -34.51657681117371 L -138.20282556136598 -33.63911297242301 L -138.38627413072464 -32.76413846806592 L -138.57829839433984 -31.891435013075697 L -138.77897521776552 -31.020776230497738 L -138.98835104298098 -30.151928531001765 L -139.206441699506 -29.28465200900889 L -139.43323228530724 -28.418701352819816 L -139.66867711788078 -27.553826766136872 L -139.9126997557311 -26.6897748983489 L -140.16519309030002 -25.826289780927453 L -140.4260195082318 -24.96311376727355 L -140.69501112369417 -24.099988473349104 L -140.97197008030878 -23.236655716430477 L -141.23002066847752 -22.368637780599485 L -141.46041738363857 -21.494904198402885 L -141.69290114641686 -20.62024860200559 L -141.9272818590115 -19.744536148572084 L -142.16335304549014 -18.86763487300179 L -142.40089227250914 -17.989416210957295 L -142.63966160720477 -17.109755509989718 L -142.87940811122976 -16.22853252732925 L -143.1198643698232 -15.345631912947873 L -143.36074905471816 -14.46094367654348 L -143.60176751961043 -13.574363637140278 L -143.84261242683465 -12.685793854051152 L -144.08296440381753 -11.795143037998164 L -144.32249272781044 -10.902326941245747 L -144.56085603733146 -10.007268725658646 L -144.79770306868653 -9.10989930765919 L -145.03267341587804 -8.210157679122982 L -145.26539831215254 -7.307991203319367 L -145.4955014313894 -6.4033558850725285 L -145.72259970748217 -5.496216614390554 L -145.94630416982375 -4.586547382884751 L -146.166220792966 -3.674331472374872 L -146.38195135849188 -2.759561615155295 L -146.59309432710788 -1.842240125474375 L -146.7992457189403 -0.9223790018593692 L -147 1.8002307947466092e-14 L -147.19495097276396 0.9248653240149126 L -147.38369266881404 1.8521756002312575 L -147.56582024146596 2.7818796611746905 L -147.7409308563242 3.7139165879663443 L -147.90862457770135 4.64821578608498 L -148.06850524885104 5.584697090570228 L -148.22018136397926 6.523270900379798 L -148.36326693001664 7.463838341532879 L -148.49738231616064 8.406291458592172 L -148.6221550892253 9.350513433958902 L -148.73722083286873 10.29637883437663 L -148.84222394881004 11.243753883966463 L -148.93681843818726 12.192496763040163 L -149.02066866125807 13.142457931867366 L -149.09345007369504 14.093480478502967 L -149.15484993778412 15.045400489713751 L -149.20456800689448 15.998047443978546 L -149.24231718165268 16.951244625474317 L -149.26782413632046 17.904809557901956 L -149.28082991394734 18.858554456948134 L -149.28109048894478 19.812286700129267 L -149.26837729580396 20.76580931271152 L -149.24247772276254 21.71892146835658 L -149.20319556930812 22.671419003099736 L -149.15035146649296 23.623094941228388 L -149.08378325912204 24.573740031594003 L -149.00334634896922 25.52314329286014 L -148.90891399826734 26.471092566160717 L -148.80037759281396 27.41737507362219 L -148.6776468641294 28.36177798118197 L -148.54065007020188 29.304088964122617 L -148.389334134453 30.244096773730007 L -148.2236647426547 31.18159180347796 L -148.04362639763104 32.11636665313994 L -147.84922243167486 33.04821668923053 L -147.6404749767133 33.97694060018701 L -147.41742489235241 34.90234094471061 L -147.18013165203348 35.824224691704664 L -146.928673187631 36.742403750264174 L -146.66314569292095 37.656695488196036 L -146.383663386444 38.566923237576695 L -146.09035823438558 39.472916785885715 L -145.7833796341856 40.37451285128912 L -145.46289405968628 41.27155554068704 L -145.12908466871372 42.16389678918154 L -144.78215087407787 43.0513967796703 L -144.42230787906 43.93392434131942 L -144.04978617854158 44.81135732572516 L -143.6648310270039 45.6835829596296 L -143.2677018747097 46.550498173117276 L -142.85867177344664 47.41200990228192 L -142.4380267532854 48.26803536541959 L -142.00606517187092 49.118502311872106 L -141.56309703782634 49.96334924271769 L -141.10944330991035 50.802525602577525 L -140.64543517362142 51.635991941883795 L -140.17141329699305 52.463720049031664 L -139.68772706737175 53.28569305191757 L -139.194733811009 54.10190548844608 L -138.69279799733818 54.912363345670656 L -138.18229042983748 55.71708406731596 L -137.66358742541064 56.51609652951336 L -137.13706998423817 57.309440984666914 L -136.60312295207217 58.09716897345072 L -136.06213417696011 58.8793432050248 L -135.5144936623934 59.65603740564151 L -134.9605927188789 60.42733613589945 L -134.40082311593252 61.193334576986615 L -133.8355762364864 61.954138286337965 L -133.26524223569322 62.70986292321553 L -132.6902092060935 63.46063394480185 L -132.1108623510931 64.20658627347638 L -131.52758316867326 64.94786393602487 L -130.94074864722631 65.68461967560835 L -130.35073047537563 66.41701453739293 L -129.75789426760096 67.14521742881584 L -129.16259880744727 67.86940465553275 L -128.56519531004818 68.58975943416021 L -127.9660267056444 69.30647138299165 L -127.36542694572212 70.01973599192912 L -126.76372033333796 70.72975407293112 L -126.16122087913418 71.43673119233375 L -125.55823168448187 72.14087708645496 L -124.95504435312063 72.84240506194142 L -124.35193843259023 73.54153138236235 L -123.74918088667414 74.23847464259757 L -123.14702559999704 74.93345513260353 L -122.54571291583626 75.6266941921772 L -121.9454692081246 76.31841355836485 L -121.34650648853575 77.00883470719097 L -120.74902204945595 77.6981781914021 L -120.15319814355647 78.38666297593858 L -119.55920170059004 79.07450577285918 L -118.9671840819422 79.76192037745287 L -118.37728087337558 80.44911700727368 L -117.78961171631047 81.13630164583738 L -117.19903094443463 81.82001075201872 L -116.57182550662685 82.47637773337566 L -115.95185170817868 83.13587453581442 L -115.33918742572602 83.79882481037114 L -114.7338834076539 84.46553981242357 L -114.1359633819564 85.1363174134914 L -113.545424227903 85.8114411404162 L -112.96223621082454 86.49117924454148 L -112.386343279178 87.17578380344673 L -111.81766342290202 87.86548985771596 L -111.25608909192657 88.56051458514156 L -110.70148767355721 89.26105651467859 L -110.15370202731417 89.96729478237137 L -109.61255107567051 90.67938843137728 L -109.07783044900115 91.39747575810763 L -108.54931318292793 92.12167370639642 L -108.02675046612244 92.85207731149394 L -107.50987243651144 93.58875919556124 L -106.9983890237174 94.33176911621864 L -106.49199083546083 95.08113356957239 L -105.99035008554985 95.83685544901111 L -105.46687298713402 96.57487822491714 L -104.92750687239821 97.30009223437953 L -104.38868967068703 98.0275045011599 L -103.85019625567814 98.75704838955396 L -103.31179363433061 99.4886426628567 L -102.77324162020757 100.22219149139472 L -102.23429352041913 100.95758449705994 L -101.69469683442247 101.6946968344225 L -101.15419396289398 102.43338930840879 L -100.61252292486934 103.17350852843907 L -100.06941808133405 103.91488709882732 L -99.52461086343735 104.657343845153 L -98.97783050349861 105.40068407622594 L -98.42880476697415 106.14469988117247 L -97.87726068355838 106.88917046108261 L -97.32292527560159 107.63386249456978 L -96.76552628204064 108.37853053650717 L -96.20479287605716 109.12291744911937 L -95.64045637470048 109.86675486452492 L -95.07225093874005 110.60976367774272 L -94.49991426104256 111.3516545690972 L -93.92318824180529 112.09212855487914 L -93.34181964901741 112.8308775650456 L -92.75556076256312 113.56758504667027 L -92.16417000042972 114.30192659178773 L -91.5674125255341 115.03357058820927 L -90.96506083173661 115.76217889182702 L -90.3568953076689 116.48740751886326 L -89.74270477706601 117.208907356469 L -89.12228701435468 117.92632489002327 L -88.49544923432111 118.63930294543889 L -87.86200855474983 119.34748144473751 L -87.22179243099957 120.05049817311728 L -86.57463906155711 120.74798955570314 L -85.92039776368885 121.43959144213943 L -85.25892931838892 122.12493989715941 L -84.5901062839049 122.80367199524397 L -83.9138132772054 123.47542661746816 L -83.22994722283853 124.13984524862013 L -82.53841756871576 124.7965727726709 L -81.83914646844346 125.44525826467218 L -81.13206892991076 126.0855557771604 L -80.4171329299311 126.71712511915352 L -79.69429949482333 127.33963262583903 L -78.96354274690522 127.95275191706784 L -78.22484991696281 128.55616464279058 L -77.47822132284377 129.14956121359887 L -76.72367031441217 129.73264151456476 L -75.96122318518798 130.30511560060623 L -75.1909190510784 130.86670437164702 L -74.4128096966939 131.41714022588224 L -73.62695938982253 131.9561676895098 L -72.83344466471739 132.4835440213401 L -72.03235407493145 132.99903979075177 L -71.22378791650873 133.5024394275236 L -70.40785792241682 133.99354174213335 L -69.58468692917677 134.47216041518556 L -68.75440851671506 134.9381244546978 L -67.91716662252949 135.39127862005182 L -67.07311513132308 135.83148381149107 L -66.22241744132039 136.25861742412823 L -65.36524600853845 136.67257366550737 L -64.50178187033508 137.07326383585212 L -63.63221414961015 137.4606165702181 L -62.75673954107886 137.83457804185787 L -61.87556178107952 138.1951121261984 L -60.988891102415664 138.54220052492323 L -60.096943675767 138.87584284974835 L -59.19994103923367 139.19605666557374 L -58.298109517603606 139.50287749279212 L -57.39167963295506 139.79635876863156 L -56.48088550822323 140.07657176750865 L -55.56596426537351 140.3436054804651 L -54.64715541983146 140.5975664538606 L -53.72470027282543 140.83857858759188 L -52.798841303295916 141.06678289320507 L -51.8698215610235 141.28233721236606 L -50.93788406261601 141.48541589624858 L -50.00327119198451 141.67620944649488 L -49.06622410691946 141.85492411849668 L -48.12698215335688 142.02178148783534 L -47.18578228889891 142.17701798081077 L -46.242858517123324 142.32088437007485 L -45.29844133418241 142.45364523647095 L -44.35275718915509 142.5755783982643 L -43.406027959573095 142.68697430902637 L -42.458470443498285 142.78813542551504 L -41.51029586947876 142.87937554696487 L -40.56170942565949 142.96101912727323 L -39.61290980926817 143.03340056163432 L -38.66408879763771 143.0968634492372 L -37.715430841865974 143.1517598337024 L -36.767112684148735 143.19844942298923 L -35.819302999755294 143.23729879055438 L -34.872162064546046 143.26868055959338 L -33.92584144886045 143.29297257223567 L -32.980483738529465 143.3105570456056 L -32.036222283691636 143.32181971669286 L -31.09318097601366 143.32714897800744 L -30.151474054838612 143.32693500601735 L -29.2112059427039 143.32156888438683 L -28.27247111059108 143.31144172404885 L -27.335353973186447 143.29694378215487 L -26.399928814349668 143.27846358194978 L -25.466259742904327 143.25638703562106 L -24.534400678781502 143.23109657216517 L -23.6043953694636 143.20297027230592 L -22.676277436593463 143.17238101248356 L -21.750070452531318 143.1396956199153 L -20.82578804655977 143.10527404070268 L -19.903434040357343 143.06946852293285 L -18.98300261227998 143.0326228166864 L -18.06447848991276 142.99507139282733 L -17.14783717027635 142.95713868240628 L -16.23304516699849 142.91913833846218 L -15.320060283686383 142.8813725219552 L -14.408831912666017 142.84413121350835 L -13.499301358184805 142.80769155257505 L -12.59140218310846 142.77231720558672 L -11.685060578078291 142.7382577645661 L -10.780195752035524 142.70574817762196 L -9.876720342960489 142.67500821266498 L -8.973631568224327 142.63178937346683 L -8.069713778979269 142.55172784834144 L -7.167829111785894 142.47931093349888 L -6.2677719988670635 142.41479720948846 L -5.369329768335504 142.35841623854662 L -4.4722834868240655 142.31036804228506 L -3.5764088201414226 142.2708226465019 L -2.6814769094693354 142.23991969418987 L -1.7872552605755834 142.21776812765407 L -0.8935086434822925 142.20444594048894 L 8.70723874193768e-15 142.2 L 0.8935086434822783 142.20444594048894 L 1.7872552605755694 142.21776812765407 L 2.6814769094693207 142.23991969418987 L 3.5764088201414403 142.2708226465019 L 4.47228348682405 142.31036804228506 L 5.36932976833549 142.35841623854662 L 6.267771998867049 142.41479720948846 L 7.16782911178588 142.47931093349888 L 8.069713778979255 142.55172784834141 L 8.973631568224313 142.63178937346683 L 9.876720342960475 142.67500821266498 L 10.78019575203551 142.70574817762196 L 11.685060578078277 142.7382577645661 L 12.591402183108446 142.77231720558672 L 13.499301358184791 142.80769155257505 L 14.408831912666002 142.84413121350835 L 15.320060283686404 142.88137252195523 L 16.233045166998476 142.91913833846218 L 17.147837170276336 142.95713868240628 L 18.064478489912744 142.99507139282736 L 18.983002612279993 143.03262281668637 L 19.903434040357325 143.06946852293282 L 20.82578804655975 143.10527404070268 L 21.750070452531304 143.1396956199153 L 22.676277436593484 143.17238101248358 L 23.60439536946359 143.20297027230592 L 24.53440067878149 143.23109657216517 L 25.46625974290431 143.25638703562106 L 26.39992881434965 143.27846358194978 L 27.335353973186436 143.29694378215487 L 28.27247111059107 143.31144172404888 L 29.21120594270388 143.32156888438683 L 30.151474054838594 143.32693500601735 L 31.093180976013645 143.32714897800744 L 32.036222283691615 143.32181971669283 L 32.98048373852945 143.31055704560558 L 33.92584144886044 143.29297257223567 L 34.87216206454606 143.26868055959335 L 35.81930299975527 143.23729879055438 L 36.767112684148714 143.19844942298923 L 37.71543084186595 143.1517598337024 L 38.664088797637724 143.0968634492372 L 39.61290980926815 143.03340056163432 L 40.56170942565946 142.9610191272732 L 41.51029586947875 142.87937554696487 L 42.458470443498314 142.78813542551504 L 43.40602795957308 142.68697430902637 L 44.35275718915508 142.5755783982643 L 45.29844133418238 142.45364523647095 L 46.24285851712331 142.32088437007485 L 47.1857822888989 142.17701798081077 L 48.12698215335686 142.02178148783537 L 49.06622410691944 141.85492411849668 L 50.00327119198449 141.67620944649488 L 50.937884062615986 141.4854158962486 L 51.86982156102349 141.28233721236606 L 52.7988413032959 141.06678289320507 L 53.72470027282542 140.83857858759188 L 54.64715541983149 140.59756645386062 L 55.565964265373495 140.3436054804651 L 56.48088550822322 140.07657176750865 L 57.39167963295505 139.79635876863156 L 58.29810951760362 139.5028774927921 L 59.19994103923365 139.19605666557374 L 60.09694367576699 138.87584284974835 L 60.98889110241566 138.54220052492323 L 61.87556178107953 138.19511212619838 L 62.756739541078844 137.8345780418579 L 63.632214149610135 137.46061657021812 L 64.50178187033507 137.07326383585215 L 65.36524600853843 136.6725736655074 L 66.22241744132035 136.25861742412823 L 67.07311513132304 135.83148381149107 L 67.9171666225295 135.39127862005182 L 68.75440851671507 134.93812445469777 L 69.58468692917675 134.47216041518556 L 70.40785792241681 133.99354174213335 L 71.22378791650873 133.5024394275236 L 72.03235407493142 132.99903979075177 L 72.83344466471739 132.4835440213401 L 73.62695938982247 131.9561676895098 L 74.41280969669391 131.41714022588224 L 75.19091905107842 130.86670437164702 L 75.961223185188 130.30511560060623 L 76.72367031441216 129.73264151456476 L 77.47822132284375 129.14956121359887 L 78.2248499169628 128.55616464279058 L 78.96354274690519 127.95275191706786 L 79.69429949482328 127.33963262583904 L 80.41713292993111 126.71712511915351 L 81.13206892991077 126.08555577716038 L 81.83914646844346 125.44525826467218 L 82.53841756871576 124.7965727726709 L 83.22994722283852 124.13984524862013 L 83.91381327720539 123.47542661746817 L 84.59010628390486 122.80367199524397 L 85.25892931838892 122.12493989715946 L 85.92039776368885 121.43959144213952 L 86.57463906155711 120.7479895557031 L 87.22179243099957 120.05049817311728 L 87.86200855474983 119.34748144473751 L 88.49544923432111 118.63930294543889 L 89.12228701435467 117.92632489002327 L 89.742704777066 117.208907356469 L 90.35689530766889 116.4874075188633 L 90.96506083173658 115.76217889182703 L 91.56741252553411 115.03357058820926 L 92.16417000042973 114.30192659178773 L 92.75556076256312 113.56758504667027 L 93.34181964901741 112.8308775650456 L 93.92318824180526 112.09212855487914 L 94.49991426104255 111.35165456909722 L 95.07225093874004 110.60976367774276 L 95.64045637470045 109.86675486452494 L 96.20479287605713 109.1229174491194 L 96.76552628204065 108.37853053650716 L 97.3229252756016 107.6338624945698 L 97.87726068355839 106.88917046108261 L 98.42880476697415 106.1446998811725 L 98.97783050349861 105.40068407622596 L 99.52461086343732 104.65734384515301 L 100.06941808133399 103.91488709882734 L 100.61252292486932 103.17350852843909 L 101.15419396289398 102.43338930840875 L 101.6946968344225 101.69469683442247 L 102.23429352041913 100.95758449705994 L 102.77324162020757 100.22219149139471 L 103.31179363433061 99.4886426628567 L 103.85019625567814 98.75704838955397 L 104.38868967068701 98.02750450115992 L 104.92750687239821 97.30009223437958 L 105.46687298713405 96.57487822491711 L 105.99035008554985 95.8368554490111 L 106.49199083546083 95.08113356957239 L 106.9983890237174 94.33176911621864 L 107.50987243651143 93.58875919556125 L 108.02675046612244 92.85207731149396 L 108.54931318292792 92.12167370639645 L 109.07783044900114 91.39747575810766 L 109.6125510756705 90.67938843137733 L 110.15370202731418 89.96729478237135 L 110.70148767355721 89.26105651467857 L 111.25608909192657 88.56051458514156 L 111.81766342290202 87.86548985771596 L 112.386343279178 87.17578380344676 L 112.96223621082454 86.49117924454151 L 113.54542422790298 85.81144114041622 L 114.13596338195639 85.13631741349141 L 114.7338834076539 84.46553981242356 L 115.33918742572604 83.79882481037113 L 115.95185170817868 83.13587453581442 L 116.57182550662685 82.47637773337564 L 117.19903094443461 81.82001075201873 L 117.78961171631047 81.13630164583739 L 118.37728087337557 80.4491170072737 L 118.96718408194218 79.76192037745288 L 119.55920170059001 79.07450577285923 L 120.15319814355647 78.38666297593856 L 120.74902204945595 77.6981781914021 L 121.34650648853575 77.00883470719097 L 121.9454692081246 76.31841355836485 L 122.54571291583625 75.62669419217721 L 123.14702559999702 74.93345513260357 L 123.74918088667414 74.23847464259758 L 124.35193843259022 73.5415313823624 L 124.95504435312063 72.8424050619414 L 125.55823168448187 72.14087708645495 L 126.16122087913418 71.43673119233374 L 126.76372033333796 70.72975407293112 L 127.36542694572209 70.01973599192912 L 127.96602670564435 69.30647138299165 L 128.56519531004813 68.58975943416021 L 129.16259880744724 67.86940465553278 L 129.75789426760096 67.14521742881583 L 130.35073047537566 66.41701453739292 L 130.94074864722634 65.68461967560835 L 131.52758316867326 64.94786393602486 L 132.1108623510931 64.20658627347638 L 132.69020920609347 63.460633944801856 L 133.26524223569322 62.70986292321555 L 133.83557623648636 61.95413828633798 L 134.4008231159325 61.19333457698665 L 134.96059271887893 60.42733613589945 L 135.51449366239336 59.656037405641484 L 136.06213417696011 58.8793432050248 L 136.60312295207217 58.09716897345073 L 137.13706998423817 57.30944098466692 L 137.6635874254106 56.51609652951337 L 138.18229042983748 55.71708406731598 L 138.69279799733818 54.912363345670684 L 139.19473381100897 54.10190548844606 L 139.68772706737172 53.285693051917555 L 140.17141329699305 52.463720049031664 L 140.64543517362142 51.635991941883795 L 141.10944330991035 50.802525602577546 L 141.5630970378263 49.96334924271771 L 142.0060651718709 49.11850231187212 L 142.4380267532854 48.26803536541962 L 142.85867177344662 47.41200990228196 L 143.26770187470976 46.550498173117276 L 143.6648310270039 45.68358295962958 L 144.04978617854158 44.81135732572516 L 144.42230787906 43.933924341319425 L 144.78215087407787 43.05139677967031 L 145.12908466871374 42.16389678918157 L 145.46289405968622 41.27155554068705 L 145.78337963418556 40.374512851289154 L 146.09035823438558 39.4729167858857 L 146.383663386444 38.56692323757668 L 146.66314569292095 37.65669548819603 L 146.928673187631 36.74240375026418 L 147.18013165203348 35.824224691704686 L 147.4174248923524 34.90234094471062 L 147.64047497671328 33.976940600187035 L 147.84922243167486 33.04821668923056 L 148.04362639763104 32.11636665313992 L 148.2236647426547 31.181591803477946 L 148.389334134453 30.24409677373 L 148.54065007020188 29.304088964122617 L 148.6776468641294 28.36177798118198 L 148.80037759281396 27.417375073622207 L 148.9089139982673 26.47109256616075 L 149.00334634896922 25.523143292860176 L 149.08378325912204 24.57374003159404 L 149.150351466493 23.62309494122837 L 149.20319556930815 22.67141900309973 L 149.24247772276254 21.71892146835658 L 149.26837729580396 20.76580931271153 L 149.28109048894478 19.81228670012928 L 149.28082991394734 18.858554456948163 L 149.26782413632046 17.904809557901984 L 149.2423171816527 16.95124462547436 L 149.20456800689448 15.998047443978527 L 149.15484993778412 15.045400489713739 L 149.09345007369504 14.093480478502963 L 149.02066866125807 13.142457931867371 L 148.93681843818726 12.192496763040173 L 148.84222394881004 11.243753883966482 L 148.73722083286873 10.296378834376657 L 148.62215508922532 9.35051343395894 L 148.49738231616067 8.406291458592216 L 148.36326693001664 7.463838341532864 L 148.22018136397926 6.523270900379791 L 148.06850524885104 5.584697090570229 L 147.90862457770135 4.648215786084988 L 147.7409308563242 3.7139165879663607 L 147.56582024146596 2.781879661174714 L 147.38369266881404 1.8521756002312892 L 147.194950972764 0.9248653240149523 L 147 0 Z"
     fill="#000000"
     id="path1"
     style="stroke:#ffffff;stroke-opacity:0.5;stroke-width:2;stroke-dasharray:none;stroke-linejoin:round" />
  <metadata
     id="metadata1">
    <rdf:RDF>
      <cc:Work
         rdf:about="">
        <dc:title>ClaimStation Rose Curve Device with Border</dc:title>
      </cc:Work>
    </rdf:RDF>
  </metadata>
</svg>
